<svg width="28" height="20" viewBox="0 0 27 20" fill="none" xmlns="http://www.w3.org/2000/svg">
  <path
    d="M22.551 1.61699C20.8169 0.859833 18.9753 0.307998 17.053 0C16.8111 0.397836 16.5422 0.936828 16.354 1.36033C14.3094 1.07799 12.2796 1.07799 10.2632 1.36033C10.075 0.936828 9.79273 0.397836 9.56419 0C7.62852 0.307998 5.7869 0.859833 4.06493 1.61699C0.583344 6.51931 -0.35763 11.3061 0.112856 16.0288C2.42495 17.6329 4.65642 18.6083 6.84888 19.25C7.38658 18.557 7.87051 17.8126 8.28723 17.0298C7.49412 16.7475 6.74134 16.4009 6.01545 15.9903C6.20365 15.862 6.39185 15.7208 6.5666 15.5797C10.9488 17.4918 15.6954 17.4918 20.0238 15.5797C20.212 15.7208 20.3867 15.862 20.5749 15.9903C19.849 16.4009 19.0963 16.7475 18.3032 17.0298C18.7199 17.8126 19.2038 18.557 19.7415 19.25C21.9326 18.6083 24.1775 17.6329 26.4775 16.0288C27.0555 10.5618 25.5621 5.81353 22.551 1.61699ZM8.89212 13.1156C7.57475 13.1156 6.49936 11.9735 6.49936 10.5747C6.49936 9.17585 7.54787 8.03363 8.89212 8.03363C10.2229 8.03363 11.3117 9.17585 11.2848 10.5747C11.2848 11.9735 10.2229 13.1156 8.89212 13.1156ZM17.7252 13.1156C16.4078 13.1156 15.331 11.9735 15.331 10.5747C15.331 9.17585 16.3809 8.03363 17.7252 8.03363C19.056 8.03363 20.1448 9.17585 20.1179 10.5747C20.1179 11.9735 19.0694 13.1156 17.7252 13.1156Z"
    fill="white" />
</svg>