<svg width="28" height="28" viewBox="0 0 27 27" fill="none" xmlns="http://www.w3.org/2000/svg">
  <g clip-path="url(#clip0_105_104)">
    <path
      d="M19.2591 0H7.34044C3.29292 0 0 3.29308 0 7.34059V19.2592C0 23.3069 3.29292 26.5998 7.34044 26.5998H19.2591C23.3069 26.5998 26.5998 23.3068 26.5998 19.2592V7.34059C26.6 3.29308 23.3069 0 19.2591 0ZM24.2399 19.2592C24.2399 22.0056 22.0056 24.2398 19.2592 24.2398H7.34044C4.59426 24.2399 2.36007 22.0056 2.36007 19.2592V7.34059C2.36007 4.59442 4.59426 2.36007 7.34044 2.36007H19.2591C22.0054 2.36007 24.2398 4.59442 24.2398 7.34059V19.2592H24.2399Z"
      fill="white" />
    <path
      d="M13.2999 6.44604C9.5205 6.44604 6.4458 9.52074 6.4458 13.3002C6.4458 17.0794 9.5205 20.1539 13.2999 20.1539C17.0793 20.1539 20.154 17.0794 20.154 13.3002C20.154 9.52074 17.0793 6.44604 13.2999 6.44604ZM13.2999 17.7937C10.822 17.7937 8.80587 15.7779 8.80587 13.3C8.80587 10.8219 10.8218 8.80595 13.2999 8.80595C15.778 8.80595 17.7939 10.8219 17.7939 13.3C17.7939 15.7779 15.7778 17.7937 13.2999 17.7937Z"
      fill="white" />
    <path
      d="M20.4415 4.44507C19.9868 4.44507 19.5401 4.62915 19.219 4.9517C18.8963 5.27267 18.7108 5.7195 18.7108 6.17578C18.7108 6.63065 18.8965 7.07733 19.219 7.39987C19.54 7.72084 19.9868 7.9065 20.4415 7.9065C20.8978 7.9065 21.3431 7.72084 21.6656 7.39987C21.9882 7.07733 22.1722 6.63049 22.1722 6.17578C22.1722 5.7195 21.9882 5.27267 21.6656 4.9517C21.3447 4.62915 20.8978 4.44507 20.4415 4.44507Z"
      fill="white" />
  </g>
  <defs>
    <clipPath id="clip0_105_104">
      <rect width="26.6" height="26.6" fill="white" />
    </clipPath>
  </defs>
</svg>