<svg width="28" height="28" viewBox="0 0 27 27" fill="none" xmlns="http://www.w3.org/2000/svg">
  <path
    d="M13.3011 0C10.6678 0 8.08783 0.771089 5.90679 2.23348C3.72574 3.69589 2.02346 5.76984 1.01272 8.21604C0.00200071 10.6356 -0.263979 13.3212 0.267992 15.9003C0.77335 18.4794 2.05006 20.846 3.91192 22.7071C5.77379 24.5684 8.14102 25.8446 10.721 26.3499C13.3011 26.8551 15.9874 26.5891 18.408 25.6054C20.8283 24.6215 22.9029 22.8667 24.3658 20.6863C25.8288 18.506 26.6 15.9269 26.6 13.2946C26.6 9.7583 25.1905 6.38138 22.7169 3.88201C20.2166 1.40922 16.8386 0 13.3011 0ZM6.57173 13.7466L6.62494 13.6668L10.0827 8.24263C10.0827 8.21604 10.1093 8.21604 10.1358 8.18944C10.1625 8.18944 10.1892 8.16286 10.1892 8.18944C10.2156 8.18944 10.2423 8.18944 10.2423 8.21604C10.2689 8.21604 10.2689 8.24263 10.2955 8.26921C10.8806 9.57213 11.3859 11.1675 11.1466 12.1778C10.987 12.7095 10.7476 13.1882 10.4551 13.6668C10.4284 13.7466 10.3753 13.8264 10.322 13.8796C10.322 13.906 10.2955 13.906 10.2689 13.906C10.2423 13.906 10.2423 13.9327 10.2156 13.9327H6.62494C6.59834 13.9327 6.59834 13.906 6.57173 13.8796C6.57173 13.8529 6.54514 13.8529 6.54514 13.8264C6.54514 13.7731 6.54514 13.7466 6.57173 13.7466ZM21.9721 15.6078C21.9721 15.6344 21.9721 15.661 21.9455 15.6875C21.9455 15.7142 21.9189 15.7142 21.8922 15.7407C21.6263 15.8472 20.722 16.2726 20.323 16.8044C19.3388 18.1603 18.594 20.1014 16.945 20.1014H10.0295C9.44436 20.1014 8.8592 19.9951 8.32722 19.7558C7.79524 19.543 7.2899 19.1973 6.89091 18.7986C6.46534 18.373 6.14616 17.8945 5.93338 17.3627C5.72059 16.8309 5.58761 16.2459 5.58761 15.6609V15.5812C5.58761 15.5546 5.58761 15.528 5.6142 15.5015C5.64079 15.4748 5.66741 15.4748 5.69399 15.4748H9.63054C9.65719 15.4748 9.65719 15.5015 9.68374 15.5015C9.68374 15.528 9.7103 15.528 9.7103 15.5546V15.6078C9.68374 15.8737 9.73695 16.113 9.84326 16.3523C9.94967 16.5916 10.1358 16.7777 10.3486 16.9107C10.5614 17.0437 10.8009 17.1234 11.0667 17.1234H12.9819V15.6344H11.0934C11.0667 15.6344 11.0403 15.6344 11.0403 15.6078C11.0136 15.6078 11.0136 15.5812 10.987 15.5546C10.987 15.528 10.9604 15.5015 10.9604 15.5015C10.9604 15.4748 10.9604 15.4482 10.987 15.4482C11.0136 15.4217 11.0403 15.3951 11.0667 15.342C11.2531 15.076 11.4924 14.7038 11.7584 14.2518C11.9445 13.9327 12.1042 13.6135 12.237 13.2946C12.2637 13.2414 12.2903 13.1616 12.3169 13.1084C12.3436 13.0552 12.3968 12.9223 12.4234 12.8158C12.4499 12.7095 12.4765 12.6564 12.5032 12.5768C12.5564 12.2842 12.6095 11.9917 12.5828 11.6992C12.5828 11.5663 12.5828 11.46 12.5564 11.327C12.5297 11.2206 12.5297 11.0611 12.5297 10.9281C12.5032 10.7951 12.5032 10.6888 12.4765 10.5825C12.4499 10.3964 12.4234 10.2368 12.3701 10.0507L12.3436 9.99747C12.3169 9.89105 12.2903 9.75829 12.237 9.65188C12.1307 9.2796 11.9979 8.9339 11.8647 8.58831L11.7052 8.18944C11.6254 8.00332 11.5456 7.81721 11.4658 7.65766C11.4391 7.57789 11.3859 7.52472 11.3594 7.44496C11.3328 7.36519 11.2796 7.2854 11.2531 7.20565C11.2264 7.12588 11.1999 7.0993 11.1732 7.04611L10.9604 6.62069V6.5675C10.9604 6.54092 10.9604 6.54092 10.987 6.54092L11.0136 6.51434H11.0667L12.5564 6.91317L12.7424 6.96635L12.9553 7.01953L13.035 7.04611V6.16867C13.035 6.00915 13.0882 5.8762 13.1681 5.74325C13.2479 5.6103 13.3543 5.53054 13.5139 5.45077C13.6469 5.39759 13.8064 5.371 13.9395 5.39759C14.099 5.42418 14.232 5.50395 14.3384 5.6103C14.4714 5.74325 14.5512 5.95596 14.5512 6.14209V7.41836L14.7107 7.47154L14.7374 7.49812L14.8969 7.63108C14.9502 7.68425 15.0034 7.73744 15.0831 7.7906C15.2162 7.89696 15.3757 8.0565 15.5885 8.21604C15.6417 8.26921 15.6948 8.29581 15.7215 8.34898C15.961 8.56171 16.2268 8.82763 16.4663 9.12001C16.546 9.19986 16.5992 9.2796 16.679 9.35935C16.7589 9.4391 16.8386 9.54547 16.8918 9.62533C16.945 9.70509 17.0779 9.8646 17.1579 9.97091L17.2643 10.1571C17.3706 10.3165 17.4503 10.4761 17.5569 10.6356C17.5834 10.7154 17.6365 10.7951 17.6632 10.8749C17.7696 11.0876 17.8227 11.3003 17.8759 11.5397C17.9025 11.5929 17.9025 11.6459 17.9025 11.6726C17.9291 11.7523 17.9291 11.8055 17.9291 11.8853C17.9558 12.1247 17.9291 12.3374 17.9025 12.5768C17.8759 12.683 17.8493 12.7627 17.8227 12.8692C17.7961 12.9755 17.7696 13.0552 17.7163 13.1616C17.6365 13.3478 17.5302 13.5339 17.4237 13.7199C17.3971 13.7731 17.3439 13.8529 17.2907 13.9327C17.2376 13.9859 17.1844 14.0656 17.1579 14.1454C17.1046 14.1986 17.0248 14.305 16.9716 14.3848C16.9184 14.4644 16.8652 14.5443 16.7854 14.624C16.7056 14.7303 16.5992 14.8368 16.5195 14.9165C16.4396 14.9963 16.413 15.0495 16.3599 15.1026L16.1737 15.2889C16.1204 15.342 16.0141 15.4482 15.9343 15.5015L15.7746 15.6344C15.7481 15.661 15.7215 15.6609 15.6948 15.6609H14.5246V17.15H15.961C16.28 17.15 16.5992 17.0437 16.8386 16.8309C17.1579 16.565 17.4503 16.2459 17.7429 15.9535C17.7696 15.9269 17.7696 15.9269 17.7961 15.9269L21.839 14.757H21.8922C21.9189 14.757 21.9189 14.757 21.9455 14.7834C21.9721 14.7834 21.9721 14.8101 21.9721 14.8368V15.6078Z"
    fill="white" />
</svg>