<svg width="31" height="31" viewBox="0 0 31 31" fill="none" xmlns="http://www.w3.org/2000/svg">
  <path
    d="M15.8216 0.820557C12.8518 0.820557 9.94205 1.69021 7.48222 3.33951C5.0224 4.98886 3.10253 7.3279 1.9626 10.0868C0.822691 12.8156 0.522714 15.8444 1.12268 18.7532C1.69263 21.6619 3.13253 24.331 5.23238 26.4301C7.33223 28.5293 10.002 29.9686 12.9118 30.5384C15.8216 31.1082 18.8514 30.8083 21.5813 29.6988C24.311 28.5892 26.6508 26.61 28.3007 24.151C29.9506 21.692 30.8204 18.7832 30.8204 15.8145C30.8204 11.8262 29.2308 8.0176 26.4409 5.19877C23.6211 2.40991 19.8114 0.820557 15.8216 0.820557ZM8.23216 16.3242L8.29217 16.2343L12.1919 10.1168C12.1919 10.0868 12.2219 10.0868 12.2518 10.0568C12.2819 10.0568 12.312 10.0268 12.312 10.0568C12.3418 10.0568 12.3719 10.0568 12.3719 10.0868C12.4019 10.0868 12.4019 10.1168 12.4319 10.1467C13.0918 11.6162 13.6617 13.4155 13.3917 14.5549C13.2118 15.1546 12.9417 15.6945 12.6119 16.2343C12.5818 16.3242 12.5219 16.4142 12.4618 16.4742C12.4618 16.504 12.4319 16.504 12.4019 16.504C12.3719 16.504 12.3719 16.5341 12.3418 16.5341H8.29217C8.26217 16.5341 8.26217 16.504 8.23216 16.4742C8.23216 16.4441 8.20217 16.4441 8.20217 16.4142C8.20217 16.3542 8.20217 16.3242 8.23216 16.3242ZM25.601 18.4233C25.601 18.4534 25.601 18.4833 25.571 18.5133C25.571 18.5433 25.541 18.5433 25.5109 18.5733C25.211 18.6933 24.1911 19.1731 23.7411 19.7728C22.6311 21.3021 21.7911 23.4913 19.9314 23.4913H12.1319C11.472 23.4913 10.812 23.3714 10.212 23.1015C9.61206 22.8615 9.04212 22.4716 8.59214 22.022C8.11217 21.5419 7.7522 21.0023 7.51221 20.4025C7.27223 19.8028 7.12225 19.143 7.12225 18.4832V18.3934C7.12225 18.3633 7.12225 18.3334 7.15224 18.3034C7.18223 18.2734 7.21225 18.2734 7.24223 18.2734H11.6819C11.712 18.2734 11.712 18.3034 11.742 18.3034C11.742 18.3334 11.7719 18.3334 11.7719 18.3633V18.4233C11.742 18.7232 11.802 18.9931 11.9219 19.2629C12.0419 19.5329 12.2518 19.7428 12.4918 19.8927C12.7318 20.0428 13.0019 20.1326 13.3017 20.1326H15.4617V18.4534H13.3317C13.3017 18.4534 13.2718 18.4534 13.2718 18.4233C13.2418 18.4233 13.2418 18.3934 13.2118 18.3633C13.2118 18.3334 13.1818 18.3034 13.1818 18.3034C13.1818 18.2734 13.1818 18.2433 13.2118 18.2433C13.2418 18.2135 13.2718 18.1834 13.3017 18.1235C13.5119 17.8236 13.7817 17.4038 14.0818 16.894C14.2916 16.5341 14.4718 16.1742 14.6216 15.8145C14.6517 15.7545 14.6817 15.6645 14.7117 15.6045C14.7417 15.5445 14.8017 15.3945 14.8318 15.2745C14.8616 15.1546 14.8917 15.0947 14.9218 15.0049C14.9818 14.6749 15.0417 14.345 15.0116 14.0152C15.0116 13.8652 15.0116 13.7453 14.9818 13.5954C14.9517 13.4754 14.9517 13.2955 14.9517 13.1455C14.9218 12.9955 14.9218 12.8756 14.8917 12.7557C14.8616 12.5458 14.8318 12.3659 14.7717 12.1559L14.7417 12.0959C14.7117 11.9759 14.6817 11.8262 14.6216 11.7061C14.5017 11.2863 14.3519 10.8964 14.2017 10.5066L14.0218 10.0568C13.9318 9.84685 13.8417 9.63696 13.7518 9.45702C13.7217 9.36705 13.6617 9.30708 13.6318 9.21713C13.6018 9.12716 13.5418 9.03718 13.5119 8.94722C13.4818 8.85726 13.4519 8.82728 13.4218 8.7673L13.1818 8.2875V8.22751C13.1818 8.19753 13.1818 8.19753 13.2118 8.19753L13.2418 8.16755H13.3017L14.9818 8.61736L15.1916 8.67734L15.4316 8.73732L15.5216 8.7673V7.7777C15.5216 7.59779 15.5816 7.44785 15.6717 7.2979C15.7616 7.14796 15.8816 7.058 16.0617 6.96804C16.2116 6.90807 16.3915 6.87808 16.5417 6.90807C16.7215 6.93805 16.8716 7.02802 16.9916 7.14796C17.1416 7.2979 17.2315 7.5378 17.2315 7.74772V9.18712L17.4114 9.24711L17.4416 9.27709L17.6215 9.42704C17.6815 9.48701 17.7415 9.54699 17.8315 9.60695C17.9815 9.72691 18.1615 9.90684 18.4015 10.0868C18.4615 10.1467 18.5214 10.1767 18.5514 10.2367C18.8215 10.4766 19.1213 10.7765 19.3914 11.1063C19.4814 11.1963 19.5414 11.2863 19.6313 11.3762C19.7214 11.4662 19.8114 11.5861 19.8714 11.6762C19.9314 11.7661 20.0812 11.9461 20.1714 12.0659L20.2914 12.2759C20.4113 12.4557 20.5013 12.6357 20.6214 12.8156C20.6513 12.9056 20.7112 12.9955 20.7413 13.0855C20.8613 13.3254 20.9212 13.5653 20.9812 13.8353C21.0113 13.8953 21.0113 13.9551 21.0113 13.9851C21.0412 14.0751 21.0412 14.1351 21.0412 14.225C21.0713 14.495 21.0412 14.7349 21.0113 15.0049C20.9812 15.1247 20.9513 15.2146 20.9212 15.3346C20.8913 15.4545 20.8613 15.5445 20.8012 15.6645C20.7112 15.8745 20.5913 16.0843 20.4712 16.2942C20.4413 16.3542 20.3813 16.4441 20.3212 16.5341C20.2614 16.5941 20.2014 16.684 20.1714 16.774C20.1113 16.834 20.0213 16.954 19.9613 17.044C19.9013 17.1338 19.8413 17.2239 19.7514 17.3138C19.6613 17.4337 19.5414 17.5537 19.4514 17.6437C19.3614 17.7336 19.3313 17.7936 19.2714 17.8535L19.0614 18.0636C19.0013 18.1235 18.8814 18.2433 18.7915 18.3034L18.6113 18.4534C18.5815 18.4833 18.5514 18.4832 18.5214 18.4832H17.2016V20.1627H18.8215C19.1813 20.1627 19.5414 20.0428 19.8114 19.8028C20.1714 19.5029 20.5013 19.143 20.8313 18.8132C20.8613 18.7832 20.8613 18.7832 20.8913 18.7832L25.4509 17.4638H25.5109C25.541 17.4638 25.541 17.4638 25.571 17.4936C25.601 17.4936 25.601 17.5237 25.601 17.5537V18.4233Z"
    fill="white" />
</svg>