<svg width="28" height="28" viewBox="0 0 27 27" fill="none" xmlns="http://www.w3.org/2000/svg">
  <path
    d="M13.3 0C9.77342 0 6.38816 1.40211 3.89648 3.89545C1.40273 6.38878 0 9.77405 0 13.3C0 16.826 1.40273 20.2112 3.89648 22.7046C6.38816 25.1979 9.77342 26.6 13.3 26.6C16.8266 26.6 20.2118 25.1979 22.7035 22.7046C25.1973 20.2112 26.6 16.826 26.6 13.3C26.6 9.77405 25.1973 6.38878 22.7035 3.89545C20.2118 1.40211 16.8266 0 13.3 0V0Z"
    fill="white" />
  <path
    d="M6.02039 13.1596C9.89817 11.4705 12.4833 10.3568 13.7759 9.8188C17.4708 8.28245 18.2376 8.01562 18.7385 8.00668C18.8486 8.00481 19.0938 8.03203 19.2538 8.1615C19.3868 8.2706 19.4243 8.41815 19.443 8.52164C19.4596 8.62513 19.4825 8.861 19.4638 9.04512C19.2643 11.1482 18.3977 16.2516 17.9571 18.6072C17.7722 19.6039 17.4043 19.9381 17.049 19.9707C16.2759 20.0418 15.6898 19.4603 14.9417 18.97C13.7717 18.2026 13.1109 17.725 11.9742 16.9763C10.6608 16.111 11.5128 15.6353 12.261 14.8581C12.4563 14.6546 15.8602 11.5592 15.9247 11.2785C15.933 11.2434 15.9413 11.1124 15.8624 11.0434C15.7855 10.9742 15.6711 10.9979 15.588 11.0166C15.4695 11.0432 13.6013 12.2793 9.97704 14.7246C9.44712 15.0891 8.96709 15.2668 8.53484 15.2575C8.06102 15.2473 7.14671 14.989 6.46716 14.7683C5.63591 14.4975 4.97296 14.3543 5.03115 13.8944C5.06024 13.655 5.39071 13.41 6.02039 13.1596V13.1596Z"
    fill="#25A3E1" />
</svg>