<svg width="28" height="22" viewBox="0 0 27 22" fill="none" xmlns="http://www.w3.org/2000/svg">
  <path
    d="M26.6 2.60485C25.6218 3.04595 24.571 3.34399 23.4662 3.4787C24.5932 2.79202 25.4578 1.7024 25.8655 0.405332C24.8111 1.04194 23.6431 1.5045 22.4002 1.75247C21.4044 0.674759 19.9869 0 18.4171 0C15.404 0 12.9603 2.48683 12.9603 5.55543C12.9603 5.98938 13.0095 6.4114 13.1008 6.81912C8.56364 6.58665 4.54424 4.3752 1.85214 1.01571C1.38354 1.8383 1.11409 2.79202 1.11409 3.80774C1.11409 5.73426 2.07824 7.43546 3.54143 8.43091C2.64641 8.40111 1.80528 8.15195 1.06958 7.73588V7.80741C1.06958 10.4981 2.94983 12.7429 5.44746 13.2532C4.98823 13.3795 4.50675 13.4463 4.01003 13.4463C3.65858 13.4463 3.31534 13.4129 2.98263 13.3485C3.67733 15.554 5.6923 17.1611 8.08098 17.204C6.21245 18.6942 3.85891 19.5823 1.3027 19.5823C0.862222 19.5823 0.427596 19.5561 0 19.5048C2.41563 21.082 5.28345 22 8.36449 22C18.4042 22 23.8927 13.5381 23.8927 6.1992C23.8927 5.96077 23.8868 5.71995 23.8763 5.48152C24.9423 4.69708 25.8678 3.72071 26.5977 2.60843L26.6 2.60485Z"
    fill="white" />
</svg>